<?xml version="1.0" standalone="no"?>
<!DOCTYPE svg PUBLIC "-//W3C//DTD SVG 20010904//EN"
 "http://www.w3.org/TR/2001/REC-SVG-20010904/DTD/svg10.dtd">
<svg version="1.0" xmlns="http://www.w3.org/2000/svg"
 width="1024.000000pt" height="720.000000pt" viewBox="0 0 1024.000000 720.000000"
 preserveAspectRatio="xMidYMid meet">

<g transform="translate(0.000000,720.000000) scale(0.100000,-0.100000)"
fill="#000000" stroke="none">
<path d="M930 6953 c-35 -104 -44 -149 -50 -241 -5 -63 -10 -116 -13 -118 -2
-2 -44 15 -93 38 l-89 42 -165 -3 c-91 -1 -166 -4 -166 -4 -4 -5 -26 -538 -23
-541 2 -1 679 -204 1504 -451 825 -246 1505 -450 1510 -452 6 -2 55 61 110
139 l99 142 -3 82 c-3 91 12 140 56 186 27 29 148 81 216 93 35 7 77 43 77 67
0 5 -18 25 -40 45 -22 20 -47 55 -56 78 -16 42 -17 43 -80 55 l-64 12 0 62 c0
33 -3 84 -6 112 l-6 50 -269 34 -268 33 -6 41 c-2 23 -6 54 -7 71 -3 28 -7 31
-83 52 -44 12 -83 23 -86 23 -4 0 -11 -26 -15 -57 l-9 -58 -49 -3 c-57 -4
-196 22 -240 45 -17 9 -57 39 -89 68 -57 50 -63 53 -157 70 -55 10 -103 21
-108 24 -5 4 -4 43 4 96 20 139 21 132 -33 138 -27 4 -91 9 -143 13 l-95 6
-42 -91 c-38 -84 -44 -91 -70 -91 -45 0 -49 9 -49 100 l1 84 -58 13 -57 13
-85 -52 -85 -53 6 -62 c7 -73 10 -72 -94 -48 -67 15 -68 16 -111 80 -66 97
-72 101 -141 109 l-61 7 6 53 7 53 -82 7 c-46 4 -88 10 -95 13 -10 3 -26 -34
-55 -124z m153 92 l59 -7 -7 -48 c-7 -55 -9 -54 82 -65 53 -7 53 -7 109 -87
31 -44 62 -81 68 -84 6 -2 51 -13 100 -23 l88 -20 -6 72 -7 72 77 48 76 48 54
-12 c49 -11 53 -14 49 -38 -2 -14 -6 -54 -9 -88 -6 -61 -5 -63 18 -63 13 0 38
-3 55 -6 31 -7 31 -6 75 88 l44 94 120 -11 c67 -6 124 -13 127 -17 4 -4 0 -54
-7 -113 -8 -58 -12 -107 -9 -109 3 -2 56 -14 116 -26 107 -21 112 -24 162 -72
29 -27 74 -58 99 -70 55 -24 177 -47 251 -48 l51 0 7 43 c13 81 7 78 81 57 36
-9 67 -20 70 -22 2 -3 7 -35 11 -71 6 -65 7 -67 37 -72 37 -6 496 -65 508 -65
4 0 8 -49 8 -109 l0 -109 69 -17 c59 -14 70 -20 76 -42 3 -13 26 -47 51 -73
35 -38 44 -53 36 -65 -5 -10 -55 -32 -114 -51 -126 -41 -165 -65 -198 -124
-22 -39 -25 -58 -26 -140 l0 -95 -92 -132 -93 -131 -32 9 c-17 5 -691 206
-1497 447 l-1465 439 2 164 c1 90 5 205 8 255 l7 92 148 7 149 7 107 -51 c59
-28 108 -50 109 -49 2 2 7 64 13 138 9 108 18 157 47 248 33 103 38 112 58
108 12 -3 48 -8 80 -11z"/>
<path d="M575 5967 c-3 -11 -65 -533 -65 -549 0 -3 39 -53 86 -110 l87 -103
368 -47 c224 -28 377 -52 389 -61 10 -7 45 -38 76 -67 46 -44 63 -69 86 -129
16 -40 27 -75 25 -77 -2 -2 -163 12 -358 31 -195 19 -369 35 -388 35 -25 0
-100 -38 -292 -147 -142 -82 -259 -151 -259 -154 0 -5 120 -136 276 -301 l73
-77 49 39 49 39 237 -211 237 -210 -5 -37 c-12 -72 -36 -345 -36 -400 0 -31 9
-97 21 -146 l20 -91 52 -21 c62 -25 55 -36 87 129 l22 117 596 457 596 457
203 -16 203 -17 144 99 145 98 -77 29 c-76 29 -77 30 -75 64 1 19 12 167 24
328 14 178 19 296 13 301 -8 7 -429 130 -2297 670 -206 59 -310 85 -312 78z
m2025 -593 l575 -166 -25 -330 -26 -330 26 -12 c14 -8 42 -19 63 -25 20 -7 37
-16 37 -20 0 -5 -56 -45 -125 -91 l-124 -82 -200 17 c-133 12 -205 14 -213 8
-7 -6 -276 -212 -598 -458 -322 -247 -588 -452 -591 -457 -3 -5 -16 -64 -29
-132 l-23 -124 -41 19 c-39 17 -41 20 -58 96 -22 99 -22 194 1 413 18 162 18
176 2 191 -9 9 -118 107 -244 218 -254 226 -222 211 -301 149 l-28 -23 -52 56
c-28 31 -101 110 -163 176 l-112 120 257 145 257 145 385 -38 c212 -21 388
-38 393 -39 12 0 8 15 -24 104 -28 79 -35 89 -108 154 l-77 70 -370 46 -369
46 -28 33 c-16 17 -53 63 -84 100 l-56 68 27 232 c15 128 30 248 33 268 l5 35
716 -208 c395 -114 976 -282 1292 -374z"/>
<path d="M3796 5769 c-49 -6 -101 -16 -116 -24 -43 -22 -63 -77 -66 -183 l-3
-92 -80 -133 c-49 -81 -75 -134 -68 -136 106 -39 1813 -556 1815 -550 2 5 13
102 25 216 l23 208 -121 5 c-144 6 -167 18 -216 111 -44 82 -68 99 -138 99
-55 0 -56 1 -121 65 l-65 64 -164 21 c-91 11 -168 20 -173 20 -4 0 -8 11 -8
25 0 34 -25 82 -49 95 -11 5 -40 10 -64 10 l-45 0 5 43 c6 55 -16 100 -60 124
-39 21 -180 26 -311 12z m287 -22 c48 -20 61 -43 67 -111 l5 -61 40 -3 c83 -5
100 -20 107 -97 l3 -30 180 -22 180 -22 62 -67 62 -67 48 6 c69 7 93 -8 134
-88 50 -94 88 -115 228 -124 l106 -6 -20 -192 c-10 -106 -23 -193 -28 -193
-10 0 -1770 540 -1775 545 -2 1 31 59 73 128 l75 125 1 78 c1 151 28 188 144
203 113 14 271 13 308 -2z"/>
<path d="M3246 5131 c-5 -34 -43 -436 -49 -510 l-2 -34 76 -22 c73 -21 82 -27
273 -191 109 -93 203 -168 209 -166 7 1 152 59 323 128 l311 126 18 173 c10
95 15 179 13 186 -3 9 -227 77 -586 180 l-581 166 -5 -36z m610 -155 l550
-158 -18 -171 c-10 -93 -19 -171 -20 -173 -2 -1 -142 -58 -311 -127 l-309
-126 -191 165 c-106 91 -201 170 -212 175 -11 4 -46 16 -78 24 -57 16 -58 17
-53 48 3 18 15 139 28 270 21 231 22 239 42 234 12 -2 269 -75 572 -161z"/>
<path d="M5396 4977 c-4 -23 -15 -130 -26 -237 -11 -107 -23 -210 -26 -228 -5
-30 -2 -34 33 -48 34 -15 44 -15 110 0 93 20 116 20 161 -1 21 -9 148 -126
292 -268 143 -141 271 -258 292 -268 86 -40 206 -8 338 92 48 36 123 95 167
131 76 61 81 68 88 112 14 96 -20 194 -77 221 -81 38 -216 49 -269 21 -41 -21
-76 -99 -89 -200 -12 -91 -26 -130 -47 -138 -39 -15 -79 95 -88 243 l-8 113
-51 24 c-59 28 -102 30 -153 9 -53 -22 -72 -19 -79 13 -35 159 -41 166 -146
167 -106 1 -119 9 -232 141 -57 67 -99 107 -115 110 -14 4 -36 13 -48 20 -21
13 -22 12 -27 -29z"/>
<path d="M5966 4843 c7 -160 12 -191 32 -197 9 -2 62 -12 117 -22 87 -16 104
-22 133 -50 23 -23 32 -41 33 -65 0 -19 4 -83 8 -142 7 -108 21 -145 48 -129
15 10 33 97 33 161 0 60 15 114 38 135 10 9 57 26 103 37 46 12 90 26 97 32
37 30 69 148 52 192 -5 14 -22 30 -37 36 -16 6 -128 15 -251 20 -250 9 -310
20 -357 69 -49 51 -54 43 -49 -77z m124 17 c61 -16 245 -30 310 -23 63 6 217
-13 238 -29 28 -24 -2 -168 -41 -192 -12 -7 -53 -21 -92 -30 -122 -30 -142
-56 -152 -198 -13 -190 -38 -180 -51 20 -13 187 -24 200 -199 234 l-110 22 -7
95 c-3 53 -6 113 -6 135 l0 38 35 -31 c19 -16 53 -35 75 -41z"/>
<path d="M4505 4787 c-2 -7 -13 -79 -25 -162 -11 -82 -23 -160 -25 -171 -4
-17 -76 -55 -339 -180 l-334 -158 79 -86 c43 -47 145 -154 226 -239 l148 -154
490 223 c270 123 493 226 497 229 8 7 64 479 57 484 -3 3 -298 90 -707 208
-47 13 -64 15 -67 6z m605 -181 c132 -39 145 -45 148 -67 4 -36 -45 -430 -55
-438 -4 -5 -223 -105 -485 -225 l-478 -217 -127 133 c-70 73 -168 175 -217
225 l-89 93 74 34 c112 51 581 275 585 279 3 3 54 337 54 352 0 1 100 -27 223
-62 122 -36 287 -84 367 -107z"/>
<path d="M7063 4435 c-149 -72 -133 -48 -156 -225 l-12 -95 -205 -118 c-113
-64 -206 -120 -207 -125 -2 -4 141 -148 317 -320 l320 -314 -7 -41 c-11 -70
-10 -71 35 -85 53 -17 69 -12 76 27 3 17 8 43 11 59 4 20 22 37 68 66 l62 39
195 -27 c191 -27 220 -35 220 -62 0 -21 5 -19 86 38 l74 52 0 68 c0 81 -29 76
250 43 l205 -24 30 27 c65 58 175 167 175 174 0 4 -72 88 -161 185 l-160 178
-212 27 c-117 15 -227 27 -244 28 -31 0 -33 -2 -33 -35 0 -21 -5 -35 -12 -35
-7 0 -78 7 -158 15 -80 8 -149 15 -154 15 -5 0 -5 55 -1 124 l7 125 -41 12
c-46 14 -45 13 -31 40 10 17 22 19 110 19 55 0 100 3 100 6 0 3 -36 45 -80 93
l-81 88 -107 11 c-59 7 -116 12 -127 11 -11 0 -79 -29 -152 -64z"/>
<path d="M3220 4343 c-63 -47 -131 -96 -150 -109 l-36 -24 -189 24 c-104 14
-194 22 -200 18 -15 -9 -1118 -823 -1129 -832 -8 -8 -45 -169 -46 -201 0 -12
13 -18 49 -22 28 -3 63 -13 80 -21 44 -23 70 -20 99 14 51 58 127 33 160 -52
36 -92 36 -97 9 -107 -35 -13 -51 -41 -97 -158 -63 -161 -63 -190 0 -366 33
-90 51 -107 110 -107 29 0 30 -2 30 -47 0 -51 -16 -172 -23 -179 -2 -3 -27 -7
-56 -11 -28 -3 -51 -9 -51 -13 0 -3 13 -18 28 -33 63 -61 161 -21 177 72 6 34
10 41 23 36 57 -22 76 -17 119 37 39 47 41 54 30 72 -8 12 -26 41 -40 66 l-26
46 459 427 c253 235 463 427 468 427 5 0 41 -41 81 -90 l72 -91 377 192 c207
105 423 216 479 246 l103 54 -386 410 c-212 225 -391 409 -397 408 -7 0 -64
-39 -127 -86z m509 -332 l371 -395 -53 -28 c-28 -16 -237 -123 -462 -238
l-411 -209 -74 94 c-41 52 -78 94 -82 93 -4 -2 -219 -200 -478 -441 l-471
-438 27 -47 c15 -26 33 -56 40 -67 11 -18 8 -25 -26 -65 l-38 -44 -51 16 -51
16 0 -32 c0 -46 -19 -95 -40 -106 -27 -14 -86 -12 -99 3 -15 19 -4 27 35 27
18 0 35 3 38 8 10 16 28 211 22 236 -5 22 -12 26 -42 26 -60 0 -70 12 -109
131 -47 139 -45 181 14 324 30 75 50 108 77 131 33 28 36 35 31 67 -9 58 -43
124 -73 144 -16 10 -46 18 -69 18 -34 0 -46 -6 -71 -34 -30 -33 -30 -33 -62
-17 -17 9 -54 21 -82 27 -57 12 -56 8 -32 119 l17 75 450 332 c248 183 502
371 567 418 l116 86 192 -25 193 -24 150 109 c83 60 154 108 158 107 4 -2 174
-180 378 -397z"/>
<path d="M5455 4395 c-52 -25 -99 -32 -110 -15 -3 6 -12 10 -19 10 -9 0 -16
-30 -22 -101 l-9 -100 43 -36 c23 -19 87 -90 141 -157 208 -257 422 -511 431
-511 7 0 360 294 360 300 0 10 -667 613 -688 622 -41 18 -72 15 -127 -12z"/>
<path d="M5066 3940 c-131 -60 -240 -111 -242 -113 -2 -2 4 -61 12 -131 9 -70
14 -129 12 -130 -1 -2 -66 -50 -143 -106 -77 -57 -144 -106 -149 -111 -9 -8
64 -109 171 -234 55 -64 87 -89 282 -213 l220 -140 153 39 c84 21 156 39 159
39 4 0 15 -41 25 -92 13 -63 25 -98 39 -110 54 -46 350 -275 353 -273 2 2 32
176 67 387 48 292 60 386 51 397 -60 76 -758 897 -764 898 -4 1 -114 -47 -246
-107z"/>
<path d="M9680 3855 c-85 -7 -167 -14 -181 -14 l-25 -1 -38 -327 c-21 -181
-38 -335 -39 -343 -2 -12 31 -18 178 -32 262 -24 239 -27 265 34 29 67 43 147
75 433 15 127 29 238 31 248 6 21 -29 21 -266 2z m250 -7 c0 -7 -5 -44 -10
-82 -6 -37 -21 -164 -35 -282 -18 -150 -32 -233 -49 -280 -13 -36 -26 -67 -28
-69 -4 -4 -388 32 -394 37 -3 4 62 591 71 634 4 20 16 22 212 36 115 8 214 16
221 17 6 0 12 -5 12 -11z"/>
<path d="M6200 3644 c-118 -101 -216 -188 -218 -193 -2 -5 36 -68 84 -140 l87
-130 -22 -213 c-12 -117 -25 -229 -28 -248 -4 -33 -2 -37 30 -52 l35 -17 63
82 64 82 16 193 c9 106 18 194 20 196 2 2 93 67 201 145 109 78 200 146 202
150 3 4 -68 80 -157 168 l-162 161 -215 -184z"/>
<path d="M3935 3408 l-769 -381 -84 89 -83 89 -394 -400 -394 -400 23 -24 24
-23 -24 -42 c-13 -22 -24 -56 -24 -74 0 -30 4 -35 53 -56 82 -37 91 -52 88
-149 -2 -78 0 -84 25 -107 42 -40 57 -78 50 -127 -10 -72 21 -103 115 -117 61
-9 103 -56 123 -138 10 -43 37 -35 103 31 62 63 121 89 172 76 36 -9 115 -93
147 -157 31 -62 38 -68 82 -68 35 0 316 138 356 175 15 14 29 48 41 96 15 64
24 80 63 116 45 43 106 69 136 57 9 -3 27 -3 41 0 38 10 31 39 -30 123 -30 42
-55 83 -55 92 0 9 16 41 35 71 38 61 43 96 20 160 -36 101 -7 175 102 264 33
27 221 140 417 251 196 111 359 205 363 208 3 4 -45 62 -107 129 -63 68 -122
133 -133 144 -18 21 -18 22 171 162 l190 141 -31 85 c-18 47 -34 86 -37 85 -3
0 -351 -172 -775 -381z m797 285 l25 -68 -194 -143 -193 -144 130 -139 c72
-77 130 -143 130 -147 0 -4 -162 -98 -360 -210 -528 -299 -565 -339 -506 -551
l15 -53 -40 -69 c-49 -83 -48 -93 21 -183 65 -85 65 -96 -1 -96 -106 0 -183
-69 -213 -192 l-19 -76 -101 -56 c-152 -83 -228 -116 -263 -116 -28 0 -35 6
-54 43 -32 64 -99 146 -132 164 -69 35 -163 7 -227 -68 -22 -27 -47 -49 -53
-49 -7 0 -21 23 -31 52 -24 68 -62 103 -121 111 -25 4 -59 14 -76 23 -30 15
-31 17 -25 64 8 57 -8 103 -48 139 -24 23 -26 30 -26 111 0 103 -10 121 -85
154 -29 13 -56 29 -60 36 -4 7 6 38 23 70 29 58 29 58 10 78 -14 13 -17 25
-12 35 5 8 176 184 380 391 l372 377 44 -48 c25 -26 61 -66 80 -88 l36 -39
158 76 c88 43 431 212 764 377 333 165 610 300 616 301 6 0 22 -30 36 -67z"/>
<path d="M9136 3735 c-16 -36 -17 -37 -65 -33 l-49 3 -44 -89 -43 -88 -60 6
c-33 3 -94 8 -135 12 l-75 6 -118 -119 -117 -119 -193 23 c-250 29 -227 30
-227 -16 0 -38 -2 -39 -110 -111 l-110 -73 -23 21 c-16 15 -58 27 -167 46 -79
14 -156 26 -170 26 -32 0 -137 -82 -151 -116 -15 -40 5 -91 70 -179 l59 -80
173 -30 174 -30 5 -94 5 -95 175 -36 175 -36 38 -70 c21 -38 50 -82 65 -97 38
-40 112 -87 135 -87 11 0 39 20 61 45 l41 44 95 -8 c72 -7 113 -16 169 -40 40
-18 80 -30 88 -27 8 3 39 -10 69 -29 30 -19 61 -35 69 -35 24 0 42 41 49 108
7 80 33 129 87 168 51 36 123 74 141 74 7 0 32 -19 56 -42 l43 -43 99 -3 c55
-2 101 -2 101 0 1 1 7 71 13 153 l11 150 98 3 97 3 0 118 0 118 -127 6 c-71 4
-155 7 -189 7 l-61 0 -71 78 -71 79 -130 -5 -131 -5 5 29 c3 16 9 49 13 74 7
43 9 45 44 48 35 3 36 4 43 58 6 52 8 54 36 54 28 0 29 -2 29 -45 l0 -46 113
3 112 3 7 110 c3 61 9 145 12 187 7 90 16 84 -126 94 l-97 6 -15 -37z"/>
<path d="M6609 3320 c-96 -72 -179 -139 -185 -150 -6 -11 -17 -88 -24 -171
l-12 -150 -39 -49 c-22 -27 -39 -52 -39 -54 0 -3 30 -59 66 -125 44 -81 71
-121 82 -121 10 1 91 23 182 49 l165 49 77 -39 c43 -22 83 -39 89 -39 6 0 77
29 158 64 l146 63 160 -18 c88 -10 179 -20 203 -23 l42 -6 0 64 0 64 -77 11
c-43 6 -127 19 -186 28 l-108 16 6 47 c6 46 5 49 -41 101 -55 63 -56 63 -157
79 -88 15 -85 9 -62 120 l15 71 -52 48 c-159 144 -224 201 -229 201 -3 0 -84
-59 -180 -130z"/>
<path d="M4364 2791 l-352 -206 31 -35 c16 -19 66 -72 109 -118 l80 -84 48 21
c63 27 120 28 120 2 0 -10 -9 -30 -21 -45 -35 -44 -20 -56 68 -56 43 0 83 -4
90 -8 27 -17 93 -215 93 -280 0 -14 -12 -41 -27 -60 -25 -34 -26 -35 -7 -49
12 -9 15 -16 8 -21 -41 -28 -214 -164 -219 -172 -4 -6 14 -51 40 -100 l46 -89
-28 -6 c-71 -15 -167 -52 -177 -67 -14 -23 7 -60 71 -127 l52 -54 66 5 c58 5
74 11 140 56 40 27 94 58 119 67 43 17 46 17 78 -2 17 -10 57 -55 88 -100 76
-113 79 -115 157 -125 79 -9 119 -34 115 -69 -1 -13 -19 -55 -39 -94 -33 -62
-37 -78 -37 -145 0 -54 5 -85 18 -110 39 -75 65 -86 124 -50 37 23 39 37 12
82 -11 18 -20 47 -20 64 0 51 94 174 134 174 16 0 97 35 236 103 14 7 30 28
37 47 15 43 17 147 3 155 -5 3 -19 37 -31 75 -26 86 -17 139 38 239 45 79 196
249 257 287 l43 27 17 151 c10 83 19 165 22 181 5 29 -2 35 -227 195 -127 91
-235 174 -239 185 -4 11 -10 41 -14 68 -4 26 -9 47 -11 47 -1 0 -59 -17 -128
-39 l-125 -38 -243 156 c-134 87 -248 159 -254 163 -5 3 -168 -88 -361 -201z"/>
<path d="M6185 2617 l-90 -52 -83 -499 c-45 -275 -81 -501 -79 -503 5 -5 230
-34 234 -30 2 2 14 61 28 132 13 70 26 129 27 130 2 1 316 122 698 270 382
147 699 271 703 275 5 4 11 29 15 56 7 48 7 49 52 56 162 26 231 41 223 48 -4
4 -142 29 -306 54 l-298 46 -159 -80 c-88 -44 -164 -80 -170 -80 -5 0 -45 23
-89 51 l-79 50 -169 -65 c-93 -37 -172 -66 -175 -66 -3 0 -47 59 -98 130 -50
72 -92 130 -94 130 -1 0 -42 -24 -91 -53z"/>
<path d="M7875 2445 l-180 -50 -5 -53 -5 -53 -695 -266 c-382 -145 -698 -268
-702 -272 -4 -4 -18 -70 -29 -146 -12 -77 -23 -141 -24 -143 -1 -1 -68 5 -149
14 -81 9 -150 14 -152 11 -10 -10 -104 -519 -104 -564 0 -82 67 -152 133 -138
45 10 54 20 72 81 11 40 20 54 34 54 30 0 32 12 6 40 -13 14 -27 40 -31 57 -5
28 -3 33 25 47 17 9 38 28 48 42 l17 26 105 -6 c157 -10 191 -16 184 -32 -3
-9 2 -14 15 -14 11 0 32 -3 48 -6 26 -5 32 -1 61 48 48 79 48 79 66 72 14 -5
17 -20 17 -84 l0 -78 34 -16 c19 -9 42 -16 53 -16 29 0 81 37 103 72 26 42 20
79 -26 162 -32 59 -34 69 -34 157 l-1 94 -49 40 c-41 33 -50 46 -50 72 0 58 6
63 76 63 45 0 75 6 102 20 35 19 38 19 50 3 7 -10 15 -29 18 -43 21 -101 67
-153 129 -148 33 3 34 9 21 98 -7 43 -5 47 32 88 53 56 94 58 152 6 22 -20 40
-45 40 -56 0 -34 19 -58 46 -58 20 0 25 -4 20 -16 -3 -9 -9 -26 -12 -39 -4
-17 -15 -25 -40 -29 -47 -9 -57 -34 -52 -130 9 -156 65 -209 167 -156 21 10
41 26 44 34 7 17 35 11 123 -25 29 -12 59 -19 68 -16 23 9 20 55 -10 136 l-26
71 -69 0 -69 0 0 40 0 40 65 0 c58 0 65 -2 65 -20 0 -14 15 -28 51 -46 28 -14
52 -24 54 -22 1 2 8 14 15 27 12 24 13 24 123 17 l111 -7 63 63 c58 58 63 66
63 106 0 40 -3 45 -30 55 -25 9 -30 17 -28 37 3 21 9 25 41 28 30 3 40 9 53
34 21 40 15 50 -48 91 -83 53 -318 285 -318 314 0 34 23 53 169 133 73 40 135
78 137 85 3 7 4 37 2 66 l-3 55 -180 -51z"/>
<path d="M5815 1743 c-6 -42 -15 -57 -72 -115 l-66 -66 -17 -94 -18 -93 29
-45 c16 -24 28 -49 25 -55 -2 -6 -12 -49 -21 -96 -9 -46 -21 -89 -26 -95 -5
-7 -99 -62 -208 -123 -110 -62 -202 -118 -205 -126 -2 -8 4 -25 14 -38 37 -46
42 -75 25 -133 -18 -63 -51 -86 -126 -87 -57 -1 -71 9 -105 80 -24 48 -26 62
-21 127 3 41 17 105 32 147 38 103 42 135 18 147 -33 18 -241 33 -288 21 -23
-6 -75 -9 -114 -7 -39 1 -71 0 -71 -3 0 -3 9 -75 21 -159 11 -83 18 -154 15
-157 -3 -3 -56 -29 -118 -57 l-113 -52 -5 -78 c-3 -43 -3 -79 -1 -81 2 -2 57
23 122 56 65 32 122 59 127 59 5 0 23 -85 42 -190 18 -104 36 -194 40 -199 3
-6 183 -33 400 -60 217 -28 407 -53 421 -55 26 -5 28 -2 125 261 96 260 107
282 142 302 16 9 14 20 -22 124 -30 87 -37 123 -32 148 3 19 36 205 71 414 36
209 68 390 70 403 5 20 2 22 -39 22 l-44 0 -7 -47z"/>
</g>
</svg>
